<svg width="651" height="50" viewBox="0 0 651 50" fill="none" xmlns="http://www.w3.org/2000/svg">
<rect width="651" height="25" fill="url(#paint0_linear_31_28)"/>
<rect y="25" width="651" height="25" fill="url(#paint1_linear_31_28)"/>
<path d="M435.104 27.266L441.184 34.1969C441.489 34.5444 441.641 34.7181 441.835 34.7389C441.871 34.7427 441.906 34.7427 441.942 34.7389C442.136 34.7181 442.288 34.5444 442.593 34.1969L448.673 27.266C450.024 25.7263 450.194 23.4791 449.091 21.7535L448.425 20.7128C446.903 18.3327 443.325 18.6812 442.291 21.3101C442.147 21.6757 441.63 21.6757 441.486 21.3101C440.452 18.6812 436.874 18.3327 435.352 20.7128L434.687 21.7535C433.583 23.4791 433.753 25.7263 435.104 27.266Z" fill="#FF3C3C" stroke="#222222" stroke-width="1.4"/>
<path d="M454.881 27.266L460.961 34.1969C461.266 34.5444 461.419 34.7181 461.613 34.7389C461.648 34.7427 461.684 34.7427 461.719 34.7389C461.913 34.7181 462.066 34.5444 462.37 34.1969L468.45 27.266C469.801 25.7263 469.971 23.4791 468.868 21.7535L468.203 20.7128C466.681 18.3327 463.102 18.6812 462.068 21.3101C461.925 21.6757 461.407 21.6757 461.263 21.3101C460.229 18.6812 456.651 18.3327 455.129 20.7128L454.464 21.7535C453.361 23.4791 453.531 25.7263 454.881 27.266Z" fill="#FF3C3C" stroke="#222222" stroke-width="1.4"/>
<path d="M474.659 27.266L480.738 34.1969C481.043 34.5444 481.196 34.7181 481.39 34.7389C481.425 34.7427 481.461 34.7427 481.496 34.7389C481.69 34.7181 481.843 34.5444 482.147 34.1969L488.227 27.266C489.578 25.7263 489.748 23.4791 488.645 21.7535L487.98 20.7128C486.458 18.3327 482.879 18.6812 481.845 21.3101C481.702 21.6757 481.184 21.6757 481.041 21.3101C480.007 18.6812 476.428 18.3327 474.906 20.7128L474.241 21.7535C473.138 23.4791 473.308 25.7263 474.659 27.266Z" fill="#FF3C3C" stroke="#222222" stroke-width="1.4"/>
<path d="M19.1041 27.266L25.184 34.1969C25.4888 34.5444 25.6413 34.7181 25.8352 34.7389C25.8706 34.7427 25.9064 34.7427 25.9419 34.7389C26.1358 34.7181 26.2882 34.5444 26.5931 34.1969L32.6729 27.266C34.0236 25.7263 34.1938 23.4791 33.0906 21.7535L32.4252 20.7128C30.9035 18.3327 27.3249 18.6812 26.291 21.3101C26.1472 21.6757 25.6299 21.6757 25.4861 21.3101C24.4521 18.6812 20.8736 18.3327 19.3519 20.7128L18.6865 21.7535C17.5832 23.4791 17.7535 25.7263 19.1041 27.266Z" fill="#FF3C3C" stroke="#222222" stroke-width="1.4"/>
<path d="M38.8815 27.266L44.9614 34.1969C45.2662 34.5444 45.4186 34.7181 45.6125 34.7389C45.648 34.7427 45.6838 34.7427 45.7192 34.7389C45.9131 34.7181 46.0656 34.5444 46.3704 34.1969L52.4503 27.266C53.8009 25.7263 53.9712 23.4791 52.8679 21.7535L52.2025 20.7128C50.6808 18.3327 47.1023 18.6812 46.0683 21.3101C45.9245 21.6757 45.4072 21.6757 45.2634 21.3101C44.2295 18.6812 40.6509 18.3327 39.1292 20.7128L38.4639 21.7535C37.3606 23.4791 37.5308 25.7263 38.8815 27.266Z" fill="#FF3C3C" stroke="#222222" stroke-width="1.4"/>
<path d="M58.6588 27.266L64.7387 34.1969C65.0435 34.5444 65.196 34.7181 65.3899 34.7389C65.4253 34.7427 65.4611 34.7427 65.4966 34.7389C65.6905 34.7181 65.8429 34.5444 66.1477 34.1969L72.2276 27.266C73.5783 25.7263 73.7485 23.4791 72.6452 21.7535L71.9799 20.7128C70.4582 18.3327 66.8796 18.6812 65.8457 21.3101C65.7019 21.6757 65.1846 21.6757 65.0408 21.3101C64.0068 18.6812 60.4283 18.3327 58.9066 20.7128L58.2412 21.7535C57.1379 23.4791 57.3082 25.7263 58.6588 27.266Z" fill="#FF3C3C" stroke="#222222" stroke-width="1.4"/>
<path d="M582.104 27.266L588.184 34.1969C588.489 34.5444 588.641 34.7181 588.835 34.7389C588.871 34.7427 588.906 34.7427 588.942 34.7389C589.136 34.7181 589.288 34.5444 589.593 34.1969L595.673 27.266C597.024 25.7263 597.194 23.4791 596.091 21.7535L595.425 20.7128C593.903 18.3327 590.325 18.6812 589.291 21.3101C589.147 21.6757 588.63 21.6757 588.486 21.3101C587.452 18.6812 583.874 18.3327 582.352 20.7128L581.687 21.7535C580.583 23.4791 580.753 25.7263 582.104 27.266Z" fill="#FF3C3C" stroke="#222222" stroke-width="1.4"/>
<path d="M601.881 27.266L607.961 34.1969C608.266 34.5444 608.418 34.7181 608.612 34.7389C608.648 34.7427 608.684 34.7427 608.719 34.7389C608.913 34.7181 609.065 34.5444 609.37 34.1969L615.45 27.266C616.801 25.7263 616.971 23.4791 615.868 21.7535L615.202 20.7128C613.681 18.3327 610.102 18.6812 609.068 21.3101C608.924 21.6757 608.407 21.6757 608.263 21.3101C607.229 18.6812 603.651 18.3327 602.129 20.7128L601.464 21.7535C600.36 23.4791 600.531 25.7263 601.881 27.266Z" fill="#FF3C3C" stroke="#222222" stroke-width="1.4"/>
<path d="M621.659 27.266L627.738 34.1969C628.043 34.5444 628.196 34.7181 628.39 34.7389C628.425 34.7427 628.461 34.7427 628.496 34.7389C628.69 34.7181 628.843 34.5444 629.147 34.1969L635.227 27.266C636.578 25.7263 636.748 23.4791 635.645 21.7535L634.98 20.7128C633.458 18.3327 629.879 18.6812 628.845 21.3101C628.702 21.6757 628.184 21.6757 628.041 21.3101C627.007 18.6812 623.428 18.3327 621.906 20.7128L621.241 21.7535C620.138 23.4791 620.308 25.7263 621.659 27.266Z" fill="#FF3C3C" stroke="#222222" stroke-width="1.4"/>
<path d="M152.104 25.266L158.184 32.1969C158.489 32.5444 158.641 32.7181 158.835 32.7389C158.871 32.7427 158.906 32.7427 158.942 32.7389C159.136 32.7181 159.288 32.5444 159.593 32.1969L165.673 25.266C167.024 23.7263 167.194 21.4791 166.091 19.7535L165.425 18.7128C163.903 16.3327 160.325 16.6812 159.291 19.3101C159.147 19.6757 158.63 19.6757 158.486 19.3101C157.452 16.6812 153.874 16.3327 152.352 18.7128L151.687 19.7535C150.583 21.4791 150.753 23.7263 152.104 25.266Z" fill="#FF3C3C" stroke="#222222" stroke-width="1.4"/>
<path d="M171.881 25.266L177.961 32.1969C178.266 32.5444 178.418 32.7181 178.612 32.7389C178.648 32.7427 178.684 32.7427 178.719 32.7389C178.913 32.7181 179.065 32.5444 179.37 32.1969L185.45 25.266C186.801 23.7263 186.971 21.4791 185.868 19.7535L185.202 18.7128C183.681 16.3327 180.102 16.6812 179.068 19.3101C178.924 19.6757 178.407 19.6757 178.263 19.3101C177.229 16.6812 173.651 16.3327 172.129 18.7128L171.464 19.7535C170.36 21.4791 170.531 23.7263 171.881 25.266Z" fill="#FF3C3C" stroke="#222222" stroke-width="1.4"/>
<path d="M192.104 25.266L198.184 32.1969C198.489 32.5444 198.641 32.7181 198.835 32.7389C198.871 32.7427 198.906 32.7427 198.942 32.7389C199.136 32.7181 199.288 32.5444 199.593 32.1969L205.673 25.266C207.024 23.7263 207.194 21.4791 206.091 19.7535L205.425 18.7128C203.903 16.3327 200.325 16.6812 199.291 19.3101C199.147 19.6757 198.63 19.6757 198.486 19.3101C197.452 16.6812 193.874 16.3327 192.352 18.7128L191.687 19.7535C190.583 21.4791 190.753 23.7263 192.104 25.266Z" fill="#FF3C3C" stroke="#222222" stroke-width="1.4"/>
<path d="M214.636 12.7273V36H211.818V12.7273H214.636ZM231.605 12.7273V36H228.923V12.7273H231.605ZM243.608 36.3636C242.032 36.3636 240.65 35.9886 239.46 35.2386C238.278 34.4886 237.354 33.4394 236.688 32.0909C236.028 30.7424 235.699 29.1667 235.699 27.3636C235.699 25.5455 236.028 23.9583 236.688 22.6023C237.354 21.2462 238.278 20.1932 239.46 19.4432C240.65 18.6932 242.032 18.3182 243.608 18.3182C245.184 18.3182 246.563 18.6932 247.744 19.4432C248.934 20.1932 249.858 21.2462 250.517 22.6023C251.184 23.9583 251.517 25.5455 251.517 27.3636C251.517 29.1667 251.184 30.7424 250.517 32.0909C249.858 33.4394 248.934 34.4886 247.744 35.2386C246.563 35.9886 245.184 36.3636 243.608 36.3636ZM243.608 33.9545C244.805 33.9545 245.79 33.6477 246.562 33.0341C247.335 32.4205 247.907 31.6136 248.278 30.6136C248.65 29.6136 248.835 28.5303 248.835 27.3636C248.835 26.197 248.65 25.1098 248.278 24.1023C247.907 23.0947 247.335 22.2803 246.562 21.6591C245.79 21.0379 244.805 20.7273 243.608 20.7273C242.411 20.7273 241.426 21.0379 240.653 21.6591C239.881 22.2803 239.309 23.0947 238.938 24.1023C238.566 25.1098 238.381 26.197 238.381 27.3636C238.381 28.5303 238.566 29.6136 238.938 30.6136C239.309 31.6136 239.881 32.4205 240.653 33.0341C241.426 33.6477 242.411 33.9545 243.608 33.9545ZM269.259 18.5455L262.804 36H260.077L253.622 18.5455H256.531L261.349 32.4545H261.531L266.349 18.5455H269.259ZM279.491 36.3636C277.81 36.3636 276.359 35.9924 275.139 35.25C273.927 34.5 272.991 33.4545 272.332 32.1136C271.681 30.7652 271.355 29.197 271.355 27.4091C271.355 25.6212 271.681 24.0455 272.332 22.6818C272.991 21.3106 273.908 20.2424 275.082 19.4773C276.264 18.7045 277.643 18.3182 279.219 18.3182C280.128 18.3182 281.026 18.4697 281.912 18.7727C282.798 19.0758 283.605 19.5682 284.332 20.25C285.06 20.9242 285.639 21.8182 286.071 22.9318C286.503 24.0455 286.719 25.4167 286.719 27.0455V28.1818H273.264V25.8636H283.991C283.991 24.8788 283.795 24 283.401 23.2273C283.014 22.4545 282.461 21.8447 281.741 21.3977C281.029 20.9508 280.188 20.7273 279.219 20.7273C278.151 20.7273 277.226 20.9924 276.446 21.5227C275.673 22.0455 275.079 22.7273 274.662 23.5682C274.245 24.4091 274.037 25.3106 274.037 26.2727V27.8182C274.037 29.1364 274.264 30.2538 274.719 31.1705C275.181 32.0795 275.821 32.7727 276.639 33.25C277.457 33.7197 278.408 33.9545 279.491 33.9545C280.196 33.9545 280.832 33.8561 281.401 33.6591C281.976 33.4545 282.473 33.1515 282.889 32.75C283.306 32.3409 283.628 31.8333 283.855 31.2273L286.446 31.9545C286.173 32.8333 285.715 33.6061 285.071 34.2727C284.427 34.9318 283.632 35.447 282.685 35.8182C281.738 36.1818 280.673 36.3636 279.491 36.3636ZM300.162 12.7273H303.526L311.435 32.0455H311.707L319.616 12.7273H322.98V36H320.344V18.3182H320.116L312.844 36H310.298L303.026 18.3182H302.798V36H300.162V12.7273ZM329.994 42.5455C329.54 42.5455 329.134 42.5076 328.778 42.4318C328.422 42.3636 328.176 42.2955 328.04 42.2273L328.722 39.8636C329.373 40.0303 329.949 40.0909 330.449 40.0455C330.949 40 331.392 39.7765 331.778 39.375C332.172 38.9811 332.532 38.3409 332.858 37.4545L333.358 36.0909L326.903 18.5455H329.812L334.631 32.4545H334.812L339.631 18.5455H342.54L335.131 38.5455C334.797 39.447 334.384 40.1932 333.892 40.7841C333.4 41.3826 332.828 41.8258 332.176 42.1136C331.532 42.4015 330.805 42.5455 329.994 42.5455ZM348.58 29.6364L348.534 26.3182H349.08L356.716 18.5455H360.034L351.898 26.7727H351.67L348.58 29.6364ZM346.08 36V12.7273H348.761V36H346.08ZM357.17 36L350.352 27.3636L352.261 25.5L360.58 36H357.17ZM369.858 36.3636C368.282 36.3636 366.9 35.9886 365.71 35.2386C364.528 34.4886 363.604 33.4394 362.938 32.0909C362.278 30.7424 361.949 29.1667 361.949 27.3636C361.949 25.5455 362.278 23.9583 362.938 22.6023C363.604 21.2462 364.528 20.1932 365.71 19.4432C366.9 18.6932 368.282 18.3182 369.858 18.3182C371.434 18.3182 372.813 18.6932 373.994 19.4432C375.184 20.1932 376.108 21.2462 376.767 22.6023C377.434 23.9583 377.767 25.5455 377.767 27.3636C377.767 29.1667 377.434 30.7424 376.767 32.0909C376.108 33.4394 375.184 34.4886 373.994 35.2386C372.813 35.9886 371.434 36.3636 369.858 36.3636ZM369.858 33.9545C371.055 33.9545 372.04 33.6477 372.812 33.0341C373.585 32.4205 374.157 31.6136 374.528 30.6136C374.9 29.6136 375.085 28.5303 375.085 27.3636C375.085 26.197 374.9 25.1098 374.528 24.1023C374.157 23.0947 373.585 22.2803 372.812 21.6591C372.04 21.0379 371.055 20.7273 369.858 20.7273C368.661 20.7273 367.676 21.0379 366.903 21.6591C366.131 22.2803 365.559 23.0947 365.188 24.1023C364.816 25.1098 364.631 26.197 364.631 27.3636C364.631 28.5303 364.816 29.6136 365.188 30.6136C365.559 31.6136 366.131 32.4205 366.903 33.0341C367.676 33.6477 368.661 33.9545 369.858 33.9545ZM384.543 12.7273V36H381.861V12.7273H384.543ZM394.591 36.4091C393.485 36.4091 392.481 36.2008 391.58 35.7841C390.678 35.3598 389.962 34.75 389.432 33.9545C388.902 33.1515 388.636 32.1818 388.636 31.0455C388.636 30.0455 388.833 29.2348 389.227 28.6136C389.621 27.9848 390.148 27.4924 390.807 27.1364C391.466 26.7803 392.193 26.5152 392.989 26.3409C393.792 26.1591 394.598 26.0152 395.409 25.9091C396.47 25.7727 397.33 25.6705 397.989 25.6023C398.655 25.5265 399.14 25.4015 399.443 25.2273C399.754 25.053 399.909 24.75 399.909 24.3182V24.2273C399.909 23.1061 399.602 22.2348 398.989 21.6136C398.383 20.9924 397.462 20.6818 396.227 20.6818C394.947 20.6818 393.943 20.9621 393.216 21.5227C392.489 22.0833 391.977 22.6818 391.682 23.3182L389.136 22.4091C389.591 21.3485 390.197 20.5227 390.955 19.9318C391.72 19.3333 392.553 18.9167 393.455 18.6818C394.364 18.4394 395.258 18.3182 396.136 18.3182C396.697 18.3182 397.341 18.3864 398.068 18.5227C398.803 18.6515 399.511 18.9205 400.193 19.3295C400.883 19.7386 401.455 20.3561 401.909 21.1818C402.364 22.0076 402.591 23.1136 402.591 24.5V36H399.909V33.6364H399.773C399.591 34.0152 399.288 34.4205 398.864 34.8523C398.439 35.2841 397.875 35.6515 397.17 35.9545C396.466 36.2576 395.606 36.4091 394.591 36.4091ZM395 34C396.061 34 396.955 33.7917 397.682 33.375C398.417 32.9583 398.97 32.4205 399.341 31.7614C399.72 31.1023 399.909 30.4091 399.909 29.6818V27.2273C399.795 27.3636 399.545 27.4886 399.159 27.6023C398.78 27.7083 398.341 27.803 397.841 27.8864C397.348 27.9621 396.867 28.0303 396.398 28.0909C395.936 28.1439 395.561 28.1894 395.273 28.2273C394.576 28.3182 393.924 28.4659 393.318 28.6705C392.72 28.8674 392.235 29.1667 391.864 29.5682C391.5 29.9621 391.318 30.5 391.318 31.1818C391.318 32.1136 391.663 32.8182 392.352 33.2955C393.049 33.7652 393.932 34 395 34ZM407.486 36V18.5455H410.168V36H407.486ZM408.849 15.6364C408.327 15.6364 407.876 15.4583 407.497 15.1023C407.126 14.7462 406.94 14.3182 406.94 13.8182C406.94 13.3182 407.126 12.8902 407.497 12.5341C407.876 12.178 408.327 12 408.849 12C409.372 12 409.819 12.178 410.19 12.5341C410.569 12.8902 410.759 13.3182 410.759 13.8182C410.759 14.3182 410.569 14.7462 410.19 15.1023C409.819 15.4583 409.372 15.6364 408.849 15.6364ZM429.352 18.5455L422.898 36H420.17L413.716 18.5455H416.625L421.443 32.4545H421.625L426.443 18.5455H429.352Z" fill="#FF0000"/>
<defs>
<linearGradient id="paint0_linear_31_28" x1="-4.85033e-06" y1="25" x2="189.568" y2="-283.522" gradientUnits="userSpaceOnUse">
<stop stop-color="#0094FF"/>
<stop offset="1" stop-color="#125B85"/>
</linearGradient>
<linearGradient id="paint1_linear_31_28" x1="1.4551e-05" y1="50" x2="189.568" y2="-258.522" gradientUnits="userSpaceOnUse">
<stop stop-color="#F3FF6C"/>
<stop offset="1" stop-color="#E8FA21"/>
</linearGradient>
</defs>
</svg>
